<svg width="512" height="512" xmlns="http://www.w3.org/2000/svg">

 <g>
  <title>background</title>
  <rect fill="none" id="canvas_background" height="402" width="582" y="-1" x="-1"/>
 </g>
 <g>
  <title>Layer 1</title>
  <path fill-opacity="0" stroke-miterlimit="10" stroke-linecap="round" stroke-width="12" stroke="#ffffff" fill="#000000" id="svg_2" d="m324.8,115.2c33.4,-14.7 66.9,-29.3 100.3,-44c2,-0.9 4,-1.7 6,-2.5c1.2,0 2.4,0 3.7,0c4.1,1.4 6.9,4.3 8.8,8.1c0,1.7 0,3.4 0,5.1c-24.9,57.4 -49.8,114.9 -74.7,172.3c-26,60 -52.1,120.1 -78,180.1c-1.9,4.5 -4.5,8 -9.2,9.6c-1.2,0 -2.4,0 -3.7,0c-4.5,-1.3 -7.2,-4.6 -9.5,-8.5c-5.6,-9.5 -11.1,-19 -16.7,-28.5" class="st0"/>
  <path stroke-miterlimit="10" stroke-linecap="round" stroke-width="12" stroke="#ffffff" fill="none" id="svg_3" d="m231.6,372.6c-10.9,-18.5 -21.8,-36.9 -32.7,-55.4c-1.2,-2.1 -3.2,-4 -5.3,-5.2c-38.8,-22.1 -77.6,-44.1 -116.4,-66.1c-3.8,-2.2 -7.1,-4.6 -8.9,-8.7c0,-1.7 0,-3.4 0,-5.1c1.8,-4.7 5.5,-7 9.9,-9c64.6,-28.3 129.2,-56.6 193.9,-84.9" class="st0"/>
  <path stroke-miterlimit="10" stroke-linecap="round" stroke-width="12" stroke="#ffffff" fill="none" id="svg_4" d="m298,127c0.5,-0.2 -0.2,0.6 0.4,0.3" class="st0"/>
  <path fill="#ffffff" stroke="#000000" stroke-opacity="0" id="svg_5" d="m194.9,315.2l0,0c-2.3,-2.3 -2.3,-6.2 0,-8.5l236.9,-236.9c2.3,-2.3 6.2,-2.3 8.5,0l0,0c2.3,2.3 2.3,6.2 0,8.5l-236.9,236.9c-2.4,2.3 -6.2,2.3 -8.5,0z"/>
 </g>
</svg>